<?xml version="1.0" encoding="UTF-8"?>
<svg width="197px" height="34px" viewBox="0 0 197 34" version="1.1" xmlns="http://www.w3.org/2000/svg" xmlns:xlink="http://www.w3.org/1999/xlink">
    <!-- Generator: Sketch 41 (35326) - http://www.bohemiancoding.com/sketch -->
    <title>newsworthy</title>
    <desc>Created with Sketch.</desc>
    <defs></defs>
    <g id="Page-1" stroke="none" stroke-width="1" fill="none" fill-rule="evenodd">
        <g id="Desktop-Home" transform="translate(-35.000000, -28.000000)" fill="#130284">
            <path d="M48.4472656,36.9541016 C49.3769578,36.9541016 50.1378551,37.0647775 50.7299805,37.2861328 C51.3221058,37.5074881 51.8063132,37.8339822 52.1826172,38.265625 C52.5589212,38.6972678 52.8300773,39.2561815 52.9960938,39.9423828 C53.1621102,40.6285842 53.2451172,41.5471948 53.2451172,42.6982422 L53.2451172,51.8457031 C53.2451172,52.4765657 53.3170566,52.9690737 53.4609375,53.3232422 C53.6048184,53.6774106 53.8317042,53.9264316 54.1416016,54.0703125 C54.4514989,54.2141934 54.8776015,54.2861328 55.4199219,54.2861328 L55.4199219,55 C53.1620981,54.9114579 51.6679724,54.8671875 50.9375,54.8671875 C50.2402309,54.8671875 48.7627066,54.9114579 46.5048828,55 L46.5048828,54.2861328 C46.9697289,54.2861328 47.3349596,54.2141934 47.6005859,54.0703125 C47.8662123,53.9264316 48.0571283,53.6774106 48.1733398,53.3232422 C48.2895514,52.9690737 48.3476562,52.4765657 48.3476562,51.8457031 L48.3476562,41.2705078 C48.3476562,40.3408157 48.1954768,39.6380232 47.8911133,39.1621094 C47.5867498,38.6861955 47.0361368,38.4482422 46.2392578,38.4482422 C45.619463,38.4482422 45.0522487,38.61979 44.5375977,38.9628906 C44.0229466,39.3059913 43.6162124,39.7791311 43.3173828,40.3823242 C43.0185532,40.9855173 42.8691406,41.6523401 42.8691406,42.3828125 L42.8691406,51.8457031 C42.8691406,52.4765657 42.9300124,52.9690737 43.0517578,53.3232422 C43.1735032,53.6774106 43.3671862,53.9264316 43.6328125,54.0703125 C43.8984388,54.2141934 44.2581358,54.2861328 44.7119141,54.2861328 L44.7119141,55 C42.6311745,54.9114579 41.2255896,54.8671875 40.4951172,54.8671875 C39.7978481,54.8671875 38.231783,54.9114579 35.796875,55 L35.796875,54.2861328 C36.3391954,54.2861328 36.7680648,54.2141934 37.0834961,54.0703125 C37.3989274,53.9264316 37.6258131,53.6774106 37.7641602,53.3232422 C37.9025072,52.9690737 37.9716797,52.4765657 37.9716797,51.8457031 L37.9716797,41.1210938 C37.9716797,40.0696562 37.8111995,39.3087589 37.4902344,38.8383789 C37.1692692,38.367999 36.6048217,38.1328125 35.796875,38.1328125 L35.796875,37.4189453 C36.5162796,37.4853519 37.2190721,37.5185547 37.9052734,37.5185547 C39.9085387,37.5185547 41.5631445,37.3636083 42.8691406,37.0537109 L42.8691406,40.1083984 C43.8984426,38.0055233 45.7577991,36.9541016 48.4472656,36.9541016 Z M62.850307,46.0849609 C62.850307,47.5901768 63.0605913,48.8380484 63.4811664,49.8286133 C63.9017414,50.8191781 64.4468206,51.5441058 65.1164203,52.003418 C65.78602,52.4627302 66.5026469,52.6923828 67.2663226,52.6923828 C69.1367747,52.6923828 70.6364342,51.7848398 71.7653461,49.9697266 L72.3630023,50.1689453 C72.0752404,51.0986375 71.6297696,51.964677 71.0265765,52.7670898 C70.4233834,53.5695027 69.6597192,54.222491 68.7355609,54.7260742 C67.8114026,55.2296575 66.757214,55.4814453 65.5729632,55.4814453 C64.0124086,55.4814453 62.6427934,55.1494174 61.4640765,54.4853516 C60.2853597,53.8212857 59.3667491,52.8113675 58.7082171,51.4555664 C58.0496852,50.0997654 57.7204242,48.4147236 57.7204242,46.4003906 C57.7204242,44.3417866 58.0745873,42.6069406 58.7829242,41.1958008 C59.4912611,39.7846609 60.4707434,38.7249384 61.7214007,38.0166016 C62.972058,37.3082647 64.4163795,36.9541016 66.0544086,36.9541016 C70.3154976,36.9541016 72.4460101,39.4664462 72.4460101,44.4912109 L62.9001117,44.4912109 C62.8669084,44.8232438 62.850307,45.3544885 62.850307,46.0849609 Z M67.6232562,39.4277344 C67.2303506,38.2545514 66.6354672,37.6679688 65.8385882,37.6679688 C65.0306415,37.6679688 64.3582849,38.1687775 63.8214984,39.1704102 C63.2847119,40.1720428 62.9554508,41.7298071 62.8337054,43.84375 L68.162807,43.84375 C68.1960103,42.0729078 68.0161618,40.6009173 67.6232562,39.4277344 Z M98.0551062,37.5185547 C99.1950858,37.5185547 100.058358,37.4853519 100.64495,37.4189453 L100.64495,38.0996094 C100.169036,38.2324225 99.7373998,38.5174132 99.350028,38.9545898 C98.9626563,39.3917665 98.6250946,40.0807245 98.3373327,41.0214844 L93.8051062,55.0664062 C93.43987,55.033203 93.0691054,55.0166016 92.6928015,55.0166016 C92.3275653,55.0166016 91.9623346,55.033203 91.5970984,55.0664062 L86.9652624,42.4492188 L83.1967077,55.0664062 C82.8536071,55.033203 82.4883763,55.0166016 82.1010046,55.0166016 C81.7468362,55.0166016 81.3760716,55.033203 80.9886999,55.0664062 L75.6097937,40.0419922 C75.1670831,38.7691994 74.5140949,38.1328125 73.6508093,38.1328125 L73.6508093,37.4189453 C75.1117541,37.5517585 76.7165558,37.6181641 78.4652624,37.6181641 C79.6052421,37.6181641 81.0827664,37.5517585 82.8978796,37.4189453 L82.8978796,38.1328125 C82.3998302,38.1328125 82.0069305,38.1521808 81.7191687,38.190918 C81.4314068,38.2296551 81.2017542,38.3209628 81.0302038,38.4648438 C80.8586535,38.6087247 80.7728796,38.8300766 80.7728796,39.1289062 C80.7728796,39.3502615 80.8337514,39.6546205 80.9554968,40.0419922 L84.0433874,49.6542969 L87.7289343,37.3857422 C88.0166961,37.39681 88.4317311,37.4023438 88.9740515,37.4023438 C89.5274397,37.4023438 89.9369408,37.39681 90.2025671,37.3857422 L94.6019812,50.3681641 L96.7601843,43.5449219 C97.0700817,42.5488231 97.225028,41.6855505 97.225028,40.9550781 C97.225028,39.2174392 96.3340864,38.2656258 94.5521765,38.0996094 L94.5521765,37.4189453 C95.6146818,37.4853519 96.7823133,37.5185547 98.0551062,37.5185547 Z M104.663714,53.0410156 C105.39972,54.147792 106.442841,54.7011719 107.793108,54.7011719 C108.457174,54.7011719 109.024389,54.4991882 109.494769,54.0952148 C109.965149,53.6912415 110.200335,53.0852905 110.200335,52.2773438 C110.200335,51.6464812 110.059223,51.0820337 109.776995,50.5839844 C109.494767,50.085935 109.137837,49.6432311 108.706194,49.2558594 C108.274552,48.8684876 107.627097,48.337243 106.763812,47.6621094 C105.712374,46.8098916 104.923808,46.1403019 104.398089,45.6533203 C103.87237,45.1663387 103.421366,44.5880567 103.045062,43.918457 C102.668758,43.2488573 102.480608,42.48796 102.480608,41.6357422 C102.480608,40.661779 102.746231,39.8206416 103.277483,39.1123047 C103.808736,38.4039678 104.522596,37.8671893 105.419085,37.5019531 C106.315574,37.1367169 107.289522,36.9541016 108.34096,36.9541016 C109.204246,36.9541016 109.995579,37.0592437 110.714983,37.2695312 C111.434388,37.4798188 111.998836,37.7233059 112.408343,38 C112.629698,38.1549487 112.828915,38.2324219 113.005999,38.2324219 C113.426574,38.2324219 113.692196,37.817387 113.802874,36.9873047 L114.549944,36.9873047 C114.461402,38.1272843 114.417132,40.1194519 114.417132,42.9638672 L113.670062,42.9638672 C113.470842,41.4807869 113.025371,40.2329152 112.333636,39.2202148 C111.641901,38.2075145 110.637516,37.7011719 109.320452,37.7011719 C108.645319,37.7011719 108.091939,37.8948548 107.660296,38.2822266 C107.228653,38.6695983 107.012835,39.200843 107.012835,39.8759766 C107.012835,40.6396523 107.26739,41.2981743 107.776507,41.8515625 C108.285624,42.4049507 108.899876,42.9361954 109.61928,43.4453125 C110.338685,43.9544296 110.864396,44.3362617 111.196429,44.5908203 C112.126121,45.2880894 112.864883,45.8968073 113.412737,46.4169922 C113.960592,46.9371771 114.406062,47.5265267 114.749163,48.1850586 C115.092264,48.8435905 115.263812,49.5989541 115.263812,50.4511719 C115.263812,51.4472706 114.973287,52.3271446 114.39223,53.0908203 C113.811172,53.854496 113.028139,54.4438456 112.043108,54.8588867 C111.058077,55.2739279 109.978987,55.4814453 108.805804,55.4814453 C107.599418,55.4814453 106.547996,55.243492 105.651507,54.7675781 C104.976373,54.4244775 104.445129,54.1865241 104.057757,54.0537109 C103.99135,54.0315754 103.936012,54.0205078 103.891741,54.0205078 C103.526505,54.0205078 103.260883,54.4244751 103.094866,55.2324219 L102.347796,55.2324219 C102.436338,53.9374935 102.480608,51.6741698 102.480608,48.4423828 L103.227679,48.4423828 C103.449034,50.401377 103.927708,51.9342393 104.663714,53.0410156 Z M141.32115,37.5185547 C142.461129,37.5185547 143.324402,37.4853519 143.910994,37.4189453 L143.910994,38.0996094 C143.43508,38.2324225 143.003443,38.5174132 142.616072,38.9545898 C142.2287,39.3917665 141.891138,40.0807245 141.603376,41.0214844 L137.07115,55.0664062 C136.705914,55.033203 136.335149,55.0166016 135.958845,55.0166016 C135.593609,55.0166016 135.228378,55.033203 134.863142,55.0664062 L130.231306,42.4492188 L126.462751,55.0664062 C126.119651,55.033203 125.75442,55.0166016 125.367048,55.0166016 C125.01288,55.0166016 124.642115,55.033203 124.254744,55.0664062 L118.875837,40.0419922 C118.433127,38.7691994 117.780139,38.1328125 116.916853,38.1328125 L116.916853,37.4189453 C118.377798,37.5517585 119.982599,37.6181641 121.731306,37.6181641 C122.871286,37.6181641 124.34881,37.5517585 126.163923,37.4189453 L126.163923,38.1328125 C125.665874,38.1328125 125.272974,38.1521808 124.985212,38.190918 C124.69745,38.2296551 124.467798,38.3209628 124.296247,38.4648438 C124.124697,38.6087247 124.038923,38.8300766 124.038923,39.1289062 C124.038923,39.3502615 124.099795,39.6546205 124.22154,40.0419922 L127.309431,49.6542969 L130.994978,37.3857422 C131.28274,37.39681 131.697775,37.4023438 132.240095,37.4023438 C132.793483,37.4023438 133.202984,37.39681 133.468611,37.3857422 L137.868025,50.3681641 L140.026228,43.5449219 C140.336125,42.5488231 140.491072,41.6855505 140.491072,40.9550781 C140.491072,39.2174392 139.60013,38.2656258 137.81822,38.0996094 L137.81822,37.4189453 C138.880725,37.4853519 140.048357,37.5185547 141.32115,37.5185547 Z M159.683664,39.1787109 C161.16121,40.6617913 161.899972,43.0136558 161.899972,46.234375 C161.899972,49.4440265 161.16121,51.7875903 159.683664,53.2651367 C158.206117,54.7426832 156.172446,55.4814453 153.58259,55.4814453 C150.992733,55.4814453 148.956295,54.7426832 147.473215,53.2651367 C145.990134,51.7875903 145.248605,49.4440265 145.248605,46.234375 C145.248605,43.0247235 145.990134,40.6756259 147.473215,39.1870117 C148.956295,37.6983975 150.992733,36.9541016 153.58259,36.9541016 C156.172446,36.9541016 158.206117,37.6956306 159.683664,39.1787109 Z M151.25007,39.7431641 C150.669013,41.1598378 150.378488,43.3235532 150.378488,46.234375 C150.378488,49.1341291 150.669013,51.2867768 151.25007,52.6923828 C151.831128,54.0979888 152.608626,54.8007812 153.58259,54.8007812 C154.567621,54.8007812 155.345119,54.1007557 155.915109,52.7006836 C156.485099,51.3006115 156.77009,49.1451968 156.77009,46.234375 C156.77009,43.3124854 156.485099,41.1460031 155.915109,39.7348633 C155.345119,38.3237234 154.567621,37.6181641 153.58259,37.6181641 C152.608626,37.6181641 151.831128,38.3264903 151.25007,39.7431641 Z M173.555455,37.8588867 C174.368936,37.2556936 175.290313,36.9541016 176.319615,36.9541016 C177.005817,36.9541016 177.581332,37.1035141 178.046178,37.4023438 C178.511024,37.7011734 178.854119,38.0857724 179.075475,38.5561523 C179.29683,39.0265323 179.407506,39.5328749 179.407506,40.0751953 C179.407506,40.9163454 179.164019,41.6025364 178.677037,42.1337891 C178.190056,42.6650417 177.548135,42.9306641 176.751256,42.9306641 C175.976513,42.9306641 175.365028,42.7342142 174.916783,42.3413086 C174.468539,41.948403 174.24442,41.4199252 174.24442,40.7558594 C174.24442,39.6712185 174.742462,38.7858107 175.738561,38.0996094 C175.59468,38.0664061 175.456335,38.0498047 175.323522,38.0498047 C175.168573,38.0498047 174.991491,38.0774737 174.792272,38.1328125 C174.216748,38.2213546 173.691037,38.4952777 173.215123,38.9545898 C172.739209,39.413902 172.365678,39.964515 172.094518,40.6064453 C171.823357,41.2483756 171.687779,41.8736949 171.687779,42.4824219 L171.687779,51.4970703 C171.687779,52.5485079 171.942334,53.2762024 172.451451,53.6801758 C172.960568,54.0841492 173.774037,54.2861328 174.891881,54.2861328 L174.891881,55 C172.058533,54.9114579 170.254515,54.8671875 169.479772,54.8671875 C168.760367,54.8671875 167.138964,54.9114579 164.615514,55 L164.615514,54.2861328 C165.157834,54.2861328 165.586704,54.2141934 165.902135,54.0703125 C166.217566,53.9264316 166.444452,53.6774106 166.582799,53.3232422 C166.721146,52.9690737 166.790318,52.4765657 166.790318,51.8457031 L166.790318,41.1210938 C166.790318,40.0696562 166.629838,39.3087589 166.308873,38.8383789 C165.987908,38.367999 165.423461,38.1328125 164.615514,38.1328125 L164.615514,37.4189453 C165.334918,37.4853519 166.037711,37.5185547 166.723912,37.5185547 C168.727177,37.5185547 170.381783,37.3636083 171.687779,37.0537109 L171.687779,40.2080078 C172.119422,39.2451124 172.741975,38.4620798 173.555455,37.8588867 Z M192.03418,37.4521484 L192.03418,38.1328125 L188.016602,38.1328125 L188.016602,51.8457031 C188.016602,52.5208367 188.138346,52.9995103 188.381836,53.2817383 C188.625327,53.5639663 189.001626,53.7050781 189.510743,53.7050781 C190.473638,53.7050781 191.242836,53.0244209 191.81836,51.6630859 L192.399415,51.9785156 C191.547197,54.3138138 189.997733,55.4814453 187.750977,55.4814453 C186.256829,55.4814453 185.1224,55.0940794 184.347657,54.3193359 C183.871743,53.8544899 183.548016,53.2651403 183.376465,52.5512695 C183.204915,51.8373988 183.119141,50.8496157 183.119141,49.5878906 L183.119141,38.1328125 L180.263672,38.1328125 L180.263672,37.4521484 L183.119141,37.4521484 L183.119141,32.9365234 C184.989593,32.9365234 186.622064,32.5712927 188.016602,31.8408203 L188.016602,37.4521484 L192.03418,37.4521484 Z M206.121792,36.9541016 C207.881566,36.9541016 209.126671,37.3912717 209.857143,38.265625 C210.233447,38.7083355 210.510137,39.272783 210.687222,39.9589844 C210.864306,40.6451857 210.952847,41.5582625 210.952847,42.6982422 L210.952847,51.8457031 C210.952847,52.4765657 211.022019,52.9690737 211.160366,53.3232422 C211.298713,53.6774106 211.522832,53.9264316 211.832729,54.0703125 C212.142627,54.2141934 212.574263,54.2861328 213.127651,54.2861328 L213.127651,55 C210.737014,54.9114579 209.237355,54.8671875 208.628628,54.8671875 C207.853884,54.8671875 206.381894,54.9114579 204.212612,55 L204.212612,54.2861328 C204.66639,54.2861328 205.026087,54.2141934 205.291714,54.0703125 C205.55734,53.9264316 205.751023,53.6774106 205.872768,53.3232422 C205.994514,52.9690737 206.055386,52.4765657 206.055386,51.8457031 L206.055386,41.2705078 C206.055386,40.3408157 205.903206,39.6380232 205.598843,39.1621094 C205.294479,38.6861955 204.743866,38.4482422 203.946987,38.4482422 C203.327192,38.4482422 202.759978,38.6170231 202.245327,38.9545898 C201.730676,39.2921566 201.323942,39.7569957 201.025112,40.3491211 C200.726283,40.9412465 200.57687,41.6080692 200.57687,42.3496094 L200.57687,51.8457031 C200.57687,52.4765657 200.634975,52.9690737 200.751186,53.3232422 C200.867398,53.6774106 201.055547,53.9264316 201.315639,54.0703125 C201.575732,54.2141934 201.938196,54.2861328 202.403042,54.2861328 L202.403042,55 C200.23376,54.9114579 198.833709,54.8671875 198.202847,54.8671875 C197.417035,54.8671875 195.85097,54.9114579 193.504604,55 L193.504604,54.2861328 C194.046925,54.2861328 194.473027,54.2141934 194.782925,54.0703125 C195.092822,53.9264316 195.319708,53.6774106 195.463589,53.3232422 C195.60747,52.9690737 195.679409,52.4765657 195.679409,51.8457031 L195.679409,32.4882812 C195.679409,31.4368437 195.516162,30.6759464 195.189663,30.2055664 C194.863164,29.7351865 194.301483,29.5 193.504604,29.5 L193.504604,28.7861328 C194.224009,28.8525394 194.926801,28.8857422 195.613003,28.8857422 C197.6052,28.8857422 199.259806,28.725262 200.57687,28.4042969 L200.57687,40.1083984 C201.595104,38.0055233 203.443393,36.9541016 206.121792,36.9541016 Z M228.593193,37.5185547 C229.733172,37.5185547 230.607512,37.4853519 231.216239,37.4189453 L231.216239,38.0996094 C230.740326,38.2213548 230.311456,38.5035785 229.929618,38.9462891 C229.547781,39.3889996 229.19085,40.0807245 228.858818,41.0214844 L222.782646,58.1210938 C222.328867,59.3053445 221.830825,60.1132791 221.288505,60.5449219 C220.624439,61.1093778 219.633889,61.3916016 218.316825,61.3916016 C217.730234,61.3916016 217.151952,61.2947601 216.581962,61.1010742 C216.011972,60.9073884 215.541599,60.6057963 215.170829,60.1962891 C214.800059,59.7867818 214.614677,59.2776723 214.614677,58.6689453 C214.614677,57.9716762 214.863698,57.4127625 215.361747,56.9921875 C215.859797,56.5716125 216.518319,56.3613281 217.337333,56.3613281 C218.101009,56.3613281 218.718027,56.5494773 219.188407,56.9257812 C219.658787,57.3020852 219.893974,57.8277961 219.893974,58.5029297 C219.893974,58.9677758 219.741794,59.402179 219.437431,59.8061523 C219.133067,60.2101257 218.715266,60.5117178 218.184013,60.7109375 C218.350029,60.733073 218.610118,60.7441406 218.964286,60.7441406 C220.38096,60.7441406 221.41578,59.8476652 222.068779,58.0546875 L222.61663,56.4277344 L215.39495,40.0419922 C215.040782,39.256181 214.689386,38.7415377 214.340751,38.4980469 C213.992117,38.2545561 213.64072,38.1328125 213.286552,38.1328125 L213.286552,37.4189453 C214.7807,37.5517585 216.335698,37.6181641 217.951591,37.6181641 C219.29079,37.6181641 220.867923,37.5517585 222.683036,37.4189453 L222.683036,38.1328125 C222.196055,38.1328125 221.814223,38.1494139 221.537529,38.1826172 C221.260834,38.2158205 221.025648,38.2988275 220.831962,38.4316406 C220.638276,38.5644538 220.541435,38.7802719 220.541435,39.0791016 C220.541435,39.3447279 220.618908,39.6656882 220.773857,40.0419922 L224.940849,50.0859375 L227.265068,43.5449219 C227.630304,42.460281 227.812919,41.552738 227.812919,40.8222656 C227.812919,39.9589801 227.591567,39.3032249 227.148857,38.8549805 C226.706146,38.406736 226.086361,38.1549482 225.289482,38.0996094 L225.289482,37.4189453 C226.351987,37.4853519 227.453213,37.5185547 228.593193,37.5185547 Z" id="newsworthy"></path>
        </g>
    </g>
</svg>